<mxfile host="app.diagrams.net" modified="2023-05-24T14:19:19.063Z" agent="Mozilla/5.0 (Windows NT 10.0; Win64; x64) AppleWebKit/537.36 (KHTML, like Gecko) Chrome/113.0.0.0 Safari/537.36 Edg/113.0.1774.50" etag="Hrep4Bmld2Hkauklvj8R" version="21.3.3" type="github" pages="2">
  <diagram id="MWDSlk-WY0k2sQAPGVdf" name="Page-2">
    <mxGraphModel dx="1428" dy="781" grid="1" gridSize="10" guides="1" tooltips="1" connect="1" arrows="1" fold="1" page="1" pageScale="1" pageWidth="1100" pageHeight="850" math="0" shadow="0">
      <root>
        <mxCell id="0" />
        <mxCell id="1" parent="0" />
        <mxCell id="CB8N8g5wz02RYLw7WGPH-4" value="" style="ellipse;whiteSpace=wrap;html=1;aspect=fixed;" vertex="1" parent="1">
          <mxGeometry x="10" y="378.13" width="125.87" height="125.87" as="geometry" />
        </mxCell>
        <mxCell id="CB8N8g5wz02RYLw7WGPH-1" value="" style="verticalLabelPosition=bottom;sketch=0;aspect=fixed;html=1;verticalAlign=top;strokeColor=none;align=center;outlineConnect=0;shape=mxgraph.citrix.cloud;" vertex="1" parent="1">
          <mxGeometry x="20" y="404" width="105" height="68.53" as="geometry" />
        </mxCell>
        <mxCell id="CB8N8g5wz02RYLw7WGPH-2" value="" style="verticalLabelPosition=bottom;sketch=0;aspect=fixed;html=1;verticalAlign=top;strokeColor=none;align=center;outlineConnect=0;shape=mxgraph.citrix.role_secure_access;fillColor=#CCCCCC;gradientColor=#000000;gradientDirection=south;" vertex="1" parent="1">
          <mxGeometry x="94.5" y="458.13" width="38" height="38" as="geometry" />
        </mxCell>
        <mxCell id="CB8N8g5wz02RYLw7WGPH-5" value="&lt;font style=&quot;font-size: 14px;&quot;&gt;Internet Gateway&lt;/font&gt;" style="text;strokeColor=none;fillColor=none;html=1;fontSize=24;fontStyle=1;verticalAlign=middle;align=center;" vertex="1" parent="1">
          <mxGeometry x="14" y="491" width="120" height="40" as="geometry" />
        </mxCell>
        <mxCell id="CB8N8g5wz02RYLw7WGPH-30" style="edgeStyle=orthogonalEdgeStyle;rounded=0;orthogonalLoop=1;jettySize=auto;html=1;exitX=1;exitY=0.5;exitDx=0;exitDy=0;strokeWidth=3;" edge="1" parent="1">
          <mxGeometry relative="1" as="geometry">
            <mxPoint x="560" y="566" as="targetPoint" />
            <mxPoint x="360" y="438.27" as="sourcePoint" />
          </mxGeometry>
        </mxCell>
        <mxCell id="CB8N8g5wz02RYLw7WGPH-6" value="" style="rounded=1;whiteSpace=wrap;html=1;" vertex="1" parent="1">
          <mxGeometry x="240" y="411.27" width="120" height="60" as="geometry" />
        </mxCell>
        <mxCell id="CB8N8g5wz02RYLw7WGPH-7" value="&lt;font style=&quot;font-size: 14px;&quot;&gt;Load balancer&lt;/font&gt;" style="text;strokeColor=none;fillColor=none;html=1;fontSize=24;fontStyle=1;verticalAlign=middle;align=center;" vertex="1" parent="1">
          <mxGeometry x="250" y="462.27" width="100" height="40" as="geometry" />
        </mxCell>
        <mxCell id="CB8N8g5wz02RYLw7WGPH-11" value="" style="verticalLabelPosition=bottom;sketch=0;aspect=fixed;html=1;verticalAlign=top;strokeColor=none;align=center;outlineConnect=0;shape=mxgraph.citrix.database_server;" vertex="1" parent="1">
          <mxGeometry x="885" y="249" width="80" height="90" as="geometry" />
        </mxCell>
        <mxCell id="CB8N8g5wz02RYLw7WGPH-12" value="" style="verticalLabelPosition=bottom;sketch=0;aspect=fixed;html=1;verticalAlign=top;strokeColor=none;align=center;outlineConnect=0;shape=mxgraph.citrix.database;" vertex="1" parent="1">
          <mxGeometry x="539" y="129" width="42.5" height="50" as="geometry" />
        </mxCell>
        <mxCell id="CB8N8g5wz02RYLw7WGPH-13" value="" style="verticalLabelPosition=bottom;sketch=0;aspect=fixed;html=1;verticalAlign=top;strokeColor=none;align=center;outlineConnect=0;shape=mxgraph.citrix.database;" vertex="1" parent="1">
          <mxGeometry x="1030" y="659" width="42.5" height="50" as="geometry" />
        </mxCell>
        <mxCell id="CB8N8g5wz02RYLw7WGPH-14" value="" style="verticalLabelPosition=bottom;sketch=0;aspect=fixed;html=1;verticalAlign=top;strokeColor=none;align=center;outlineConnect=0;shape=mxgraph.citrix.database;" vertex="1" parent="1">
          <mxGeometry x="418" y="259" width="42.5" height="50" as="geometry" />
        </mxCell>
        <mxCell id="CB8N8g5wz02RYLw7WGPH-15" value="" style="verticalLabelPosition=bottom;sketch=0;aspect=fixed;html=1;verticalAlign=top;strokeColor=none;align=center;outlineConnect=0;shape=mxgraph.citrix.database;" vertex="1" parent="1">
          <mxGeometry x="630" y="169" width="42.5" height="50" as="geometry" />
        </mxCell>
        <mxCell id="CB8N8g5wz02RYLw7WGPH-16" value="" style="verticalLabelPosition=bottom;sketch=0;aspect=fixed;html=1;verticalAlign=top;strokeColor=none;align=center;outlineConnect=0;shape=mxgraph.citrix.database;" vertex="1" parent="1">
          <mxGeometry x="663" y="259" width="42.5" height="50" as="geometry" />
        </mxCell>
        <mxCell id="CB8N8g5wz02RYLw7WGPH-17" value="" style="verticalLabelPosition=bottom;sketch=0;aspect=fixed;html=1;verticalAlign=top;strokeColor=none;align=center;outlineConnect=0;shape=mxgraph.citrix.database;" vertex="1" parent="1">
          <mxGeometry x="417.5" y="629" width="42.5" height="50" as="geometry" />
        </mxCell>
        <mxCell id="CB8N8g5wz02RYLw7WGPH-18" value="" style="verticalLabelPosition=bottom;sketch=0;aspect=fixed;html=1;verticalAlign=top;strokeColor=none;align=center;outlineConnect=0;shape=mxgraph.citrix.database;" vertex="1" parent="1">
          <mxGeometry x="587.5" y="709" width="42.5" height="50" as="geometry" />
        </mxCell>
        <mxCell id="CB8N8g5wz02RYLw7WGPH-19" value="" style="verticalLabelPosition=bottom;sketch=0;aspect=fixed;html=1;verticalAlign=top;strokeColor=none;align=center;outlineConnect=0;shape=mxgraph.citrix.database;" vertex="1" parent="1">
          <mxGeometry x="467.75" y="699" width="42.5" height="50" as="geometry" />
        </mxCell>
        <mxCell id="CB8N8g5wz02RYLw7WGPH-21" value="" style="verticalLabelPosition=bottom;sketch=0;aspect=fixed;html=1;verticalAlign=top;strokeColor=none;align=center;outlineConnect=0;shape=mxgraph.citrix.database;" vertex="1" parent="1">
          <mxGeometry x="1000" y="539" width="42.5" height="50" as="geometry" />
        </mxCell>
        <mxCell id="CB8N8g5wz02RYLw7WGPH-22" value="" style="verticalLabelPosition=bottom;sketch=0;aspect=fixed;html=1;verticalAlign=top;strokeColor=none;align=center;outlineConnect=0;shape=mxgraph.citrix.database;" vertex="1" parent="1">
          <mxGeometry x="950" y="719" width="42.5" height="50" as="geometry" />
        </mxCell>
        <mxCell id="CB8N8g5wz02RYLw7WGPH-24" value="" style="verticalLabelPosition=bottom;sketch=0;aspect=fixed;html=1;verticalAlign=top;strokeColor=none;align=center;outlineConnect=0;shape=mxgraph.citrix.database;" vertex="1" parent="1">
          <mxGeometry x="813.75" y="689" width="42.5" height="50" as="geometry" />
        </mxCell>
        <mxCell id="CB8N8g5wz02RYLw7WGPH-25" value="" style="verticalLabelPosition=bottom;sketch=0;aspect=fixed;html=1;verticalAlign=top;strokeColor=none;align=center;outlineConnect=0;shape=mxgraph.citrix.database;" vertex="1" parent="1">
          <mxGeometry x="922.5" y="139" width="42.5" height="50" as="geometry" />
        </mxCell>
        <mxCell id="CB8N8g5wz02RYLw7WGPH-26" value="" style="verticalLabelPosition=bottom;sketch=0;aspect=fixed;html=1;verticalAlign=top;strokeColor=none;align=center;outlineConnect=0;shape=mxgraph.citrix.database;" vertex="1" parent="1">
          <mxGeometry x="1020" y="249" width="42.5" height="50" as="geometry" />
        </mxCell>
        <mxCell id="CB8N8g5wz02RYLw7WGPH-27" value="" style="verticalLabelPosition=bottom;sketch=0;aspect=fixed;html=1;verticalAlign=top;strokeColor=none;align=center;outlineConnect=0;shape=mxgraph.citrix.database;" vertex="1" parent="1">
          <mxGeometry x="800" y="229" width="42.5" height="50" as="geometry" />
        </mxCell>
        <mxCell id="CB8N8g5wz02RYLw7WGPH-28" value="" style="edgeStyle=segmentEdgeStyle;endArrow=classic;html=1;curved=0;rounded=0;endSize=8;startSize=8;strokeWidth=3;" edge="1" parent="1" target="CB8N8g5wz02RYLw7WGPH-8">
          <mxGeometry width="50" height="50" relative="1" as="geometry">
            <mxPoint x="360" y="439" as="sourcePoint" />
            <mxPoint x="410" y="389" as="targetPoint" />
            <Array as="points">
              <mxPoint x="560" y="439" />
            </Array>
          </mxGeometry>
        </mxCell>
        <mxCell id="CB8N8g5wz02RYLw7WGPH-29" value="" style="edgeStyle=segmentEdgeStyle;endArrow=classic;html=1;curved=0;rounded=0;endSize=8;startSize=8;strokeWidth=3;" edge="1" parent="1">
          <mxGeometry width="50" height="50" relative="1" as="geometry">
            <mxPoint x="560" y="439" as="sourcePoint" />
            <mxPoint x="925" y="339" as="targetPoint" />
          </mxGeometry>
        </mxCell>
        <mxCell id="CB8N8g5wz02RYLw7WGPH-31" style="edgeStyle=orthogonalEdgeStyle;rounded=0;orthogonalLoop=1;jettySize=auto;html=1;exitX=1;exitY=0.5;exitDx=0;exitDy=0;strokeWidth=3;" edge="1" parent="1">
          <mxGeometry relative="1" as="geometry">
            <mxPoint x="925" y="567" as="targetPoint" />
            <mxPoint x="725" y="439.27" as="sourcePoint" />
          </mxGeometry>
        </mxCell>
        <mxCell id="CB8N8g5wz02RYLw7WGPH-32" value="&lt;font style=&quot;font-size: 14px;&quot;&gt;Application Serve 1&lt;/font&gt;" style="text;strokeColor=none;fillColor=none;html=1;fontSize=24;fontStyle=1;verticalAlign=middle;align=center;" vertex="1" parent="1">
          <mxGeometry x="439" y="339" width="100" height="40" as="geometry" />
        </mxCell>
        <mxCell id="CB8N8g5wz02RYLw7WGPH-33" value="&lt;font style=&quot;font-size: 14px;&quot;&gt;Application Serve 2&lt;/font&gt;" style="text;strokeColor=none;fillColor=none;html=1;fontSize=24;fontStyle=1;verticalAlign=middle;align=center;" vertex="1" parent="1">
          <mxGeometry x="800" y="339" width="100" height="40" as="geometry" />
        </mxCell>
        <mxCell id="CB8N8g5wz02RYLw7WGPH-34" value="&lt;font style=&quot;font-size: 14px;&quot;&gt;Application Serve 3&lt;/font&gt;" style="text;strokeColor=none;fillColor=none;html=1;fontSize=24;fontStyle=1;verticalAlign=middle;align=center;" vertex="1" parent="1">
          <mxGeometry x="420" y="529" width="100" height="40" as="geometry" />
        </mxCell>
        <mxCell id="CB8N8g5wz02RYLw7WGPH-35" value="&lt;font style=&quot;font-size: 14px;&quot;&gt;Application Serve 4&lt;/font&gt;" style="text;strokeColor=none;fillColor=none;html=1;fontSize=24;fontStyle=1;verticalAlign=middle;align=center;" vertex="1" parent="1">
          <mxGeometry x="785" y="529" width="100" height="40" as="geometry" />
        </mxCell>
        <mxCell id="CB8N8g5wz02RYLw7WGPH-37" value="" style="endArrow=classic;startArrow=classic;html=1;rounded=0;entryX=0;entryY=0.5;entryDx=0;entryDy=0;strokeWidth=3;" edge="1" parent="1">
          <mxGeometry width="50" height="50" relative="1" as="geometry">
            <mxPoint x="137" y="441" as="sourcePoint" />
            <mxPoint x="237" y="441.27" as="targetPoint" />
          </mxGeometry>
        </mxCell>
        <mxCell id="CB8N8g5wz02RYLw7WGPH-39" value="" style="endArrow=classic;html=1;rounded=0;strokeWidth=3;" edge="1" parent="1">
          <mxGeometry width="50" height="50" relative="1" as="geometry">
            <mxPoint x="450" y="438.77" as="sourcePoint" />
            <mxPoint x="360" y="438.77" as="targetPoint" />
          </mxGeometry>
        </mxCell>
        <mxCell id="CB8N8g5wz02RYLw7WGPH-40" value="" style="endArrow=none;html=1;rounded=0;" edge="1" parent="1" target="CB8N8g5wz02RYLw7WGPH-25">
          <mxGeometry width="50" height="50" relative="1" as="geometry">
            <mxPoint x="920" y="249" as="sourcePoint" />
            <mxPoint x="970" y="199" as="targetPoint" />
          </mxGeometry>
        </mxCell>
        <mxCell id="CB8N8g5wz02RYLw7WGPH-41" value="" style="endArrow=none;html=1;rounded=0;" edge="1" parent="1">
          <mxGeometry width="50" height="50" relative="1" as="geometry">
            <mxPoint x="842.5" y="689" as="sourcePoint" />
            <mxPoint x="892.5" y="639" as="targetPoint" />
          </mxGeometry>
        </mxCell>
        <mxCell id="CB8N8g5wz02RYLw7WGPH-43" value="" style="endArrow=none;html=1;rounded=0;" edge="1" parent="1">
          <mxGeometry width="50" height="50" relative="1" as="geometry">
            <mxPoint x="581.5" y="259" as="sourcePoint" />
            <mxPoint x="631.5" y="209" as="targetPoint" />
          </mxGeometry>
        </mxCell>
        <mxCell id="CB8N8g5wz02RYLw7WGPH-44" value="" style="endArrow=none;html=1;rounded=0;" edge="1" parent="1" source="CB8N8g5wz02RYLw7WGPH-17">
          <mxGeometry width="50" height="50" relative="1" as="geometry">
            <mxPoint x="470" y="689" as="sourcePoint" />
            <mxPoint x="520" y="639" as="targetPoint" />
          </mxGeometry>
        </mxCell>
        <mxCell id="CB8N8g5wz02RYLw7WGPH-45" value="" style="endArrow=none;html=1;rounded=0;" edge="1" parent="1">
          <mxGeometry width="50" height="50" relative="1" as="geometry">
            <mxPoint x="489.25" y="699" as="sourcePoint" />
            <mxPoint x="539" y="649" as="targetPoint" />
            <Array as="points">
              <mxPoint x="519.25" y="669" />
            </Array>
          </mxGeometry>
        </mxCell>
        <mxCell id="CB8N8g5wz02RYLw7WGPH-46" value="" style="endArrow=none;html=1;rounded=0;entryX=0;entryY=0.8;entryDx=0;entryDy=0;entryPerimeter=0;" edge="1" parent="1" target="CB8N8g5wz02RYLw7WGPH-26">
          <mxGeometry width="50" height="50" relative="1" as="geometry">
            <mxPoint x="950" y="289" as="sourcePoint" />
            <mxPoint x="1000" y="239" as="targetPoint" />
          </mxGeometry>
        </mxCell>
        <mxCell id="CB8N8g5wz02RYLw7WGPH-47" value="" style="endArrow=none;html=1;rounded=0;" edge="1" parent="1" target="CB8N8g5wz02RYLw7WGPH-11">
          <mxGeometry width="50" height="50" relative="1" as="geometry">
            <mxPoint x="842.5" y="269" as="sourcePoint" />
            <mxPoint x="892.5" y="219" as="targetPoint" />
          </mxGeometry>
        </mxCell>
        <mxCell id="CB8N8g5wz02RYLw7WGPH-48" value="" style="endArrow=none;html=1;rounded=0;" edge="1" parent="1">
          <mxGeometry width="50" height="50" relative="1" as="geometry">
            <mxPoint x="950" y="619" as="sourcePoint" />
            <mxPoint x="1000" y="569" as="targetPoint" />
          </mxGeometry>
        </mxCell>
        <mxCell id="CB8N8g5wz02RYLw7WGPH-49" value="" style="endArrow=none;html=1;rounded=0;" edge="1" parent="1">
          <mxGeometry width="50" height="50" relative="1" as="geometry">
            <mxPoint x="606.1764705882354" y="709" as="sourcePoint" />
            <mxPoint x="570" y="649" as="targetPoint" />
          </mxGeometry>
        </mxCell>
        <mxCell id="CB8N8g5wz02RYLw7WGPH-10" value="" style="verticalLabelPosition=bottom;sketch=0;aspect=fixed;html=1;verticalAlign=top;strokeColor=none;align=center;outlineConnect=0;shape=mxgraph.citrix.database_server;" vertex="1" parent="1">
          <mxGeometry x="520" y="569" width="80" height="90" as="geometry" />
        </mxCell>
        <mxCell id="CB8N8g5wz02RYLw7WGPH-52" value="" style="endArrow=none;html=1;rounded=0;" edge="1" parent="1">
          <mxGeometry width="50" height="50" relative="1" as="geometry">
            <mxPoint x="587.5" y="619" as="sourcePoint" />
            <mxPoint x="670" y="619" as="targetPoint" />
          </mxGeometry>
        </mxCell>
        <mxCell id="CB8N8g5wz02RYLw7WGPH-23" value="" style="verticalLabelPosition=bottom;sketch=0;aspect=fixed;html=1;verticalAlign=top;strokeColor=none;align=center;outlineConnect=0;shape=mxgraph.citrix.database;" vertex="1" parent="1">
          <mxGeometry x="663" y="589" width="42.5" height="50" as="geometry" />
        </mxCell>
        <mxCell id="CB8N8g5wz02RYLw7WGPH-53" value="" style="endArrow=none;html=1;rounded=0;" edge="1" parent="1" source="CB8N8g5wz02RYLw7WGPH-22" target="CB8N8g5wz02RYLw7WGPH-9">
          <mxGeometry width="50" height="50" relative="1" as="geometry">
            <mxPoint x="890" y="699" as="sourcePoint" />
            <mxPoint x="930" y="679" as="targetPoint" />
            <Array as="points">
              <mxPoint x="960" y="719" />
            </Array>
          </mxGeometry>
        </mxCell>
        <mxCell id="CB8N8g5wz02RYLw7WGPH-54" value="" style="endArrow=none;html=1;rounded=0;" edge="1" parent="1">
          <mxGeometry width="50" height="50" relative="1" as="geometry">
            <mxPoint x="960" y="649" as="sourcePoint" />
            <mxPoint x="1030" y="669" as="targetPoint" />
          </mxGeometry>
        </mxCell>
        <mxCell id="CB8N8g5wz02RYLw7WGPH-9" value="" style="verticalLabelPosition=bottom;sketch=0;aspect=fixed;html=1;verticalAlign=top;strokeColor=none;align=center;outlineConnect=0;shape=mxgraph.citrix.database_server;" vertex="1" parent="1">
          <mxGeometry x="890" y="569" width="80" height="90" as="geometry" />
        </mxCell>
        <mxCell id="CB8N8g5wz02RYLw7WGPH-56" value="" style="endArrow=none;html=1;rounded=0;" edge="1" parent="1" source="CB8N8g5wz02RYLw7WGPH-8">
          <mxGeometry width="50" height="50" relative="1" as="geometry">
            <mxPoint x="510.25" y="229" as="sourcePoint" />
            <mxPoint x="560.25" y="179" as="targetPoint" />
          </mxGeometry>
        </mxCell>
        <mxCell id="CB8N8g5wz02RYLw7WGPH-57" value="" style="verticalLabelPosition=bottom;sketch=0;aspect=fixed;html=1;verticalAlign=top;strokeColor=none;align=center;outlineConnect=0;shape=mxgraph.citrix.database;" vertex="1" parent="1">
          <mxGeometry x="439" y="179" width="42.5" height="50" as="geometry" />
        </mxCell>
        <mxCell id="CB8N8g5wz02RYLw7WGPH-58" value="" style="endArrow=none;html=1;rounded=0;" edge="1" parent="1">
          <mxGeometry width="50" height="50" relative="1" as="geometry">
            <mxPoint x="458" y="299" as="sourcePoint" />
            <mxPoint x="539" y="299" as="targetPoint" />
          </mxGeometry>
        </mxCell>
        <mxCell id="CB8N8g5wz02RYLw7WGPH-59" value="" style="endArrow=none;html=1;rounded=0;" edge="1" parent="1">
          <mxGeometry width="50" height="50" relative="1" as="geometry">
            <mxPoint x="479" y="219" as="sourcePoint" />
            <mxPoint x="539" y="269" as="targetPoint" />
          </mxGeometry>
        </mxCell>
        <mxCell id="CB8N8g5wz02RYLw7WGPH-60" value="" style="endArrow=none;html=1;rounded=0;" edge="1" parent="1">
          <mxGeometry width="50" height="50" relative="1" as="geometry">
            <mxPoint x="587.5" y="299" as="sourcePoint" />
            <mxPoint x="662.5" y="299" as="targetPoint" />
          </mxGeometry>
        </mxCell>
        <mxCell id="CB8N8g5wz02RYLw7WGPH-8" value="" style="verticalLabelPosition=bottom;sketch=0;aspect=fixed;html=1;verticalAlign=top;strokeColor=none;align=center;outlineConnect=0;shape=mxgraph.citrix.database_server;" vertex="1" parent="1">
          <mxGeometry x="520" y="249" width="80" height="90" as="geometry" />
        </mxCell>
        <mxCell id="CB8N8g5wz02RYLw7WGPH-62" value="" style="shape=crossbar;whiteSpace=wrap;html=1;rounded=1;rotation=-90;" vertex="1" parent="1">
          <mxGeometry x="240" y="438.57" width="20" height="5" as="geometry" />
        </mxCell>
        <mxCell id="CB8N8g5wz02RYLw7WGPH-63" value="" style="shape=crossbar;whiteSpace=wrap;html=1;rounded=1;rotation=-90;" vertex="1" parent="1">
          <mxGeometry x="250" y="438.57" width="20" height="5" as="geometry" />
        </mxCell>
        <mxCell id="CB8N8g5wz02RYLw7WGPH-64" value="" style="shape=crossbar;whiteSpace=wrap;html=1;rounded=1;rotation=-90;" vertex="1" parent="1">
          <mxGeometry x="260" y="439.57" width="20" height="5" as="geometry" />
        </mxCell>
        <mxCell id="CB8N8g5wz02RYLw7WGPH-65" value="" style="shape=crossbar;whiteSpace=wrap;html=1;rounded=1;rotation=-90;" vertex="1" parent="1">
          <mxGeometry x="270" y="439.57" width="20" height="5" as="geometry" />
        </mxCell>
        <mxCell id="CB8N8g5wz02RYLw7WGPH-66" value="" style="shape=waypoint;sketch=0;fillStyle=solid;size=6;pointerEvents=1;points=[];fillColor=none;resizable=0;rotatable=0;perimeter=centerPerimeter;snapToPoint=1;" vertex="1" parent="1">
          <mxGeometry x="330" y="444" width="20" height="20" as="geometry" />
        </mxCell>
        <mxCell id="CB8N8g5wz02RYLw7WGPH-67" value="" style="shape=waypoint;sketch=0;fillStyle=solid;size=6;pointerEvents=1;points=[];fillColor=none;resizable=0;rotatable=0;perimeter=centerPerimeter;snapToPoint=1;" vertex="1" parent="1">
          <mxGeometry x="320" y="445" width="20" height="20" as="geometry" />
        </mxCell>
        <mxCell id="CB8N8g5wz02RYLw7WGPH-68" value="&lt;font style=&quot;font-size: 18px;&quot;&gt;Cluster of Database&lt;/font&gt;" style="text;strokeColor=none;fillColor=none;html=1;fontSize=24;fontStyle=1;verticalAlign=middle;align=center;" vertex="1" parent="1">
          <mxGeometry x="500" y="769" width="100" height="40" as="geometry" />
        </mxCell>
        <mxCell id="CB8N8g5wz02RYLw7WGPH-69" value="&lt;font style=&quot;font-size: 18px;&quot;&gt;Cluster of Database&lt;/font&gt;" style="text;strokeColor=none;fillColor=none;html=1;fontSize=24;fontStyle=1;verticalAlign=middle;align=center;" vertex="1" parent="1">
          <mxGeometry x="856.25" y="769" width="100" height="40" as="geometry" />
        </mxCell>
        <mxCell id="CB8N8g5wz02RYLw7WGPH-70" value="&lt;font style=&quot;font-size: 18px;&quot;&gt;Cluster of Database&lt;/font&gt;" style="text;strokeColor=none;fillColor=none;html=1;fontSize=24;fontStyle=1;verticalAlign=middle;align=center;" vertex="1" parent="1">
          <mxGeometry x="500" y="89" width="100" height="40" as="geometry" />
        </mxCell>
        <mxCell id="CB8N8g5wz02RYLw7WGPH-71" value="&lt;font style=&quot;font-size: 18px;&quot;&gt;Cluster of Database&lt;/font&gt;" style="text;strokeColor=none;fillColor=none;html=1;fontSize=24;fontStyle=1;verticalAlign=middle;align=center;" vertex="1" parent="1">
          <mxGeometry x="890" y="89" width="100" height="40" as="geometry" />
        </mxCell>
      </root>
    </mxGraphModel>
  </diagram>
  <diagram name="Page-1" id="822b0af5-4adb-64df-f703-e8dfc1f81529">
    <mxGraphModel dx="1428" dy="781" grid="1" gridSize="10" guides="1" tooltips="1" connect="1" arrows="1" fold="1" page="1" pageScale="1" pageWidth="1100" pageHeight="850" background="none" math="0" shadow="0">
      <root>
        <mxCell id="0" />
        <mxCell id="1" parent="0" />
        <mxCell id="7d933b09d9755ecc-14" value="Resource forest" style="triangle;whiteSpace=wrap;html=1;rounded=0;shadow=0;comic=0;strokeWidth=1;fontFamily=Verdana;direction=north;labelPosition=center;verticalLabelPosition=bottom;align=center;verticalAlign=top;" parent="1" vertex="1">
          <mxGeometry x="830" y="230" width="530" height="537" as="geometry" />
        </mxCell>
        <mxCell id="7d933b09d9755ecc-12" value="User forest" style="triangle;whiteSpace=wrap;html=1;rounded=0;shadow=0;comic=0;strokeWidth=1;fontFamily=Verdana;direction=north;labelPosition=center;verticalLabelPosition=bottom;align=center;verticalAlign=top;" parent="1" vertex="1">
          <mxGeometry x="400" y="92" width="286" height="340" as="geometry" />
        </mxCell>
        <mxCell id="7d933b09d9755ecc-13" value="" style="ellipse;whiteSpace=wrap;html=1;rounded=0;shadow=0;comic=0;strokeWidth=1;fontFamily=Verdana;" parent="1" vertex="1">
          <mxGeometry x="473" y="326" width="142" height="94" as="geometry" />
        </mxCell>
        <mxCell id="7d933b09d9755ecc-4" value="" style="verticalLabelPosition=bottom;aspect=fixed;html=1;verticalAlign=top;strokeColor=none;shape=mxgraph.citrix.directory_server;rounded=0;shadow=0;comic=0;fontFamily=Verdana;" parent="1" vertex="1">
          <mxGeometry x="1063" y="64" width="65" height="88.5" as="geometry" />
        </mxCell>
        <mxCell id="7d933b09d9755ecc-5" value="" style="verticalLabelPosition=bottom;aspect=fixed;html=1;verticalAlign=top;strokeColor=none;shape=mxgraph.citrix.file_server;rounded=0;shadow=0;comic=0;fontFamily=Verdana;" parent="1" vertex="1">
          <mxGeometry x="1053" y="611" width="71" height="97" as="geometry" />
        </mxCell>
        <mxCell id="7d933b09d9755ecc-6" value="Users" style="verticalLabelPosition=bottom;aspect=fixed;html=1;verticalAlign=top;strokeColor=none;shape=mxgraph.citrix.users;rounded=0;shadow=0;comic=0;fontFamily=Verdana;" parent="1" vertex="1">
          <mxGeometry x="511" y="339" width="64.5" height="55" as="geometry" />
        </mxCell>
        <mxCell id="7d933b09d9755ecc-9" value="" style="verticalLabelPosition=bottom;aspect=fixed;html=1;verticalAlign=top;strokeColor=none;shape=mxgraph.citrix.tower_server;rounded=0;shadow=0;comic=0;fontFamily=Verdana;" parent="1" vertex="1">
          <mxGeometry x="511" y="193" width="65" height="85" as="geometry" />
        </mxCell>
        <mxCell id="7d933b09d9755ecc-15" value="" style="ellipse;whiteSpace=wrap;html=1;rounded=0;shadow=0;comic=0;strokeWidth=1;fontFamily=Verdana;" parent="1" vertex="1">
          <mxGeometry x="979" y="440" width="220" height="140" as="geometry" />
        </mxCell>
        <mxCell id="7d933b09d9755ecc-16" value="Disabled users" style="verticalLabelPosition=bottom;aspect=fixed;html=1;verticalAlign=top;strokeColor=none;shape=mxgraph.citrix.users;rounded=0;shadow=0;comic=0;fontFamily=Verdana;" parent="1" vertex="1">
          <mxGeometry x="1060" y="477" width="64.5" height="55" as="geometry" />
        </mxCell>
        <mxCell id="7d933b09d9755ecc-17" value="" style="verticalLabelPosition=bottom;aspect=fixed;html=1;verticalAlign=top;strokeColor=none;shape=mxgraph.citrix.tower_server;rounded=0;shadow=0;comic=0;fontFamily=Verdana;" parent="1" vertex="1">
          <mxGeometry x="1060" y="331" width="65" height="85" as="geometry" />
        </mxCell>
        <mxCell id="7d933b09d9755ecc-18" value="User forest" style="triangle;whiteSpace=wrap;html=1;rounded=0;shadow=0;comic=0;strokeWidth=1;fontFamily=Verdana;direction=north;labelPosition=center;verticalLabelPosition=bottom;align=center;verticalAlign=top;" parent="1" vertex="1">
          <mxGeometry x="1580" y="76" width="286" height="340" as="geometry" />
        </mxCell>
        <mxCell id="7d933b09d9755ecc-19" value="" style="ellipse;whiteSpace=wrap;html=1;rounded=0;shadow=0;comic=0;strokeWidth=1;fontFamily=Verdana;" parent="1" vertex="1">
          <mxGeometry x="1653" y="310" width="142" height="90" as="geometry" />
        </mxCell>
        <mxCell id="7d933b09d9755ecc-20" value="Users" style="verticalLabelPosition=bottom;aspect=fixed;html=1;verticalAlign=top;strokeColor=none;shape=mxgraph.citrix.users;rounded=0;shadow=0;comic=0;fontFamily=Verdana;" parent="1" vertex="1">
          <mxGeometry x="1691" y="323" width="64.5" height="55" as="geometry" />
        </mxCell>
        <mxCell id="7d933b09d9755ecc-21" value="" style="verticalLabelPosition=bottom;aspect=fixed;html=1;verticalAlign=top;strokeColor=none;shape=mxgraph.citrix.tower_server;rounded=0;shadow=0;comic=0;fontFamily=Verdana;" parent="1" vertex="1">
          <mxGeometry x="1691" y="177" width="65" height="85" as="geometry" />
        </mxCell>
        <mxCell id="7d933b09d9755ecc-22" style="rounded=0;html=1;labelBackgroundColor=none;startArrow=none;startFill=0;endArrow=block;endFill=1;strokeColor=#0000FF;strokeWidth=1;fontFamily=Verdana;fontSize=12" parent="1" source="7d933b09d9755ecc-19" target="7d933b09d9755ecc-15" edge="1">
          <mxGeometry relative="1" as="geometry" />
        </mxCell>
        <mxCell id="7d933b09d9755ecc-23" style="rounded=0;html=1;labelBackgroundColor=none;startArrow=none;startFill=0;endArrow=block;endFill=1;strokeColor=#0000FF;strokeWidth=1;fontFamily=Verdana;fontSize=12" parent="1" source="7d933b09d9755ecc-13" target="7d933b09d9755ecc-15" edge="1">
          <mxGeometry relative="1" as="geometry" />
        </mxCell>
        <mxCell id="7d933b09d9755ecc-24" style="edgeStyle=none;rounded=0;html=1;exitX=0.5;exitY=1;labelBackgroundColor=none;startArrow=none;startFill=0;endArrow=block;endFill=1;strokeColor=#0000FF;strokeWidth=1;fontFamily=Verdana;fontSize=12;fontColor=#000000;" parent="1" source="7d933b09d9755ecc-15" target="7d933b09d9755ecc-5" edge="1">
          <mxGeometry relative="1" as="geometry" />
        </mxCell>
        <mxCell id="7d933b09d9755ecc-25" value="Trust relationship" style="html=1;labelBackgroundColor=none;startArrow=none;startFill=0;endArrow=block;endFill=1;strokeColor=#FF0000;strokeWidth=1;fontFamily=Verdana;fontSize=12;entryX=1;entryY=0.5;curved=1;" parent="1" target="7d933b09d9755ecc-18" edge="1">
          <mxGeometry x="-0.0165" y="-10" relative="1" as="geometry">
            <mxPoint x="1095" y="230" as="sourcePoint" />
            <mxPoint x="1530" y="240" as="targetPoint" />
            <Array as="points">
              <mxPoint x="1400" y="110" />
            </Array>
            <mxPoint as="offset" />
          </mxGeometry>
        </mxCell>
        <mxCell id="7d933b09d9755ecc-26" value="Trust relationship" style="html=1;entryX=1;entryY=0.5;labelBackgroundColor=none;startArrow=none;startFill=0;endArrow=block;endFill=1;strokeColor=#FF0000;strokeWidth=1;fontFamily=Verdana;fontSize=12;curved=1;" parent="1" target="7d933b09d9755ecc-12" edge="1">
          <mxGeometry x="-0.0644" y="45" relative="1" as="geometry">
            <mxPoint x="1095" y="230" as="sourcePoint" />
            <Array as="points">
              <mxPoint x="920" y="120" />
            </Array>
            <mxPoint as="offset" />
          </mxGeometry>
        </mxCell>
        <mxCell id="7d933b09d9755ecc-27" value="Synchronization" style="rounded=0;html=1;entryX=0.878;entryY=0.433;entryPerimeter=0;labelBackgroundColor=none;startArrow=none;startFill=0;endArrow=block;endFill=1;strokeWidth=1;fontFamily=Verdana;fontSize=12" parent="1" source="7d933b09d9755ecc-4" target="7d933b09d9755ecc-18" edge="1">
          <mxGeometry x="-0.3348" y="21" relative="1" as="geometry">
            <mxPoint as="offset" />
          </mxGeometry>
        </mxCell>
        <mxCell id="7d933b09d9755ecc-28" value="Synchronization" style="edgeStyle=none;rounded=0;html=1;labelBackgroundColor=none;startArrow=none;startFill=0;endArrow=block;endFill=1;strokeWidth=1;fontFamily=Verdana;fontSize=12" parent="1" source="7d933b09d9755ecc-4" target="7d933b09d9755ecc-14" edge="1">
          <mxGeometry x="-0.2966" relative="1" as="geometry">
            <mxPoint as="offset" />
          </mxGeometry>
        </mxCell>
        <mxCell id="7d933b09d9755ecc-29" value="Synchronization" style="edgeStyle=none;rounded=0;html=1;entryX=0.912;entryY=0.559;entryPerimeter=0;labelBackgroundColor=none;startArrow=none;startFill=0;endArrow=block;endFill=1;strokeWidth=1;fontFamily=Verdana;fontSize=12" parent="1" source="7d933b09d9755ecc-4" target="7d933b09d9755ecc-12" edge="1">
          <mxGeometry x="-0.1948" y="-14" relative="1" as="geometry">
            <mxPoint as="offset" />
          </mxGeometry>
        </mxCell>
        <mxCell id="7d933b09d9755ecc-31" value="User forest" style="triangle;whiteSpace=wrap;html=1;rounded=0;shadow=0;comic=0;strokeWidth=1;fontFamily=Verdana;direction=north;labelPosition=center;verticalLabelPosition=bottom;align=center;verticalAlign=top;" parent="1" vertex="1">
          <mxGeometry x="483" y="477" width="286" height="340" as="geometry" />
        </mxCell>
        <mxCell id="7d933b09d9755ecc-32" value="" style="ellipse;whiteSpace=wrap;html=1;rounded=0;shadow=0;comic=0;strokeWidth=1;fontFamily=Verdana;" parent="1" vertex="1">
          <mxGeometry x="556" y="711" width="142" height="89" as="geometry" />
        </mxCell>
        <mxCell id="7d933b09d9755ecc-33" value="Users" style="verticalLabelPosition=bottom;aspect=fixed;html=1;verticalAlign=top;strokeColor=none;shape=mxgraph.citrix.users;rounded=0;shadow=0;comic=0;fontFamily=Verdana;" parent="1" vertex="1">
          <mxGeometry x="594" y="724" width="64.5" height="55" as="geometry" />
        </mxCell>
        <mxCell id="7d933b09d9755ecc-34" value="" style="verticalLabelPosition=bottom;aspect=fixed;html=1;verticalAlign=top;strokeColor=none;shape=mxgraph.citrix.tower_server;rounded=0;shadow=0;comic=0;fontFamily=Verdana;" parent="1" vertex="1">
          <mxGeometry x="594" y="578" width="65" height="85" as="geometry" />
        </mxCell>
        <mxCell id="7d933b09d9755ecc-35" value="User forest" style="triangle;whiteSpace=wrap;html=1;rounded=0;shadow=0;comic=0;strokeWidth=1;fontFamily=Verdana;direction=north;labelPosition=center;verticalLabelPosition=bottom;align=center;verticalAlign=top;" parent="1" vertex="1">
          <mxGeometry x="1405" y="460" width="286" height="340" as="geometry" />
        </mxCell>
        <mxCell id="7d933b09d9755ecc-36" value="" style="ellipse;whiteSpace=wrap;html=1;rounded=0;shadow=0;comic=0;strokeWidth=1;fontFamily=Verdana;" parent="1" vertex="1">
          <mxGeometry x="1478" y="694" width="142" height="96" as="geometry" />
        </mxCell>
        <mxCell id="7d933b09d9755ecc-37" value="Users" style="verticalLabelPosition=bottom;aspect=fixed;html=1;verticalAlign=top;strokeColor=none;shape=mxgraph.citrix.users;rounded=0;shadow=0;comic=0;fontFamily=Verdana;" parent="1" vertex="1">
          <mxGeometry x="1516" y="707" width="64.5" height="55" as="geometry" />
        </mxCell>
        <mxCell id="7d933b09d9755ecc-38" value="" style="verticalLabelPosition=bottom;aspect=fixed;html=1;verticalAlign=top;strokeColor=none;shape=mxgraph.citrix.tower_server;rounded=0;shadow=0;comic=0;fontFamily=Verdana;" parent="1" vertex="1">
          <mxGeometry x="1516" y="561" width="65" height="85" as="geometry" />
        </mxCell>
        <mxCell id="7d933b09d9755ecc-39" style="edgeStyle=none;rounded=0;html=1;exitX=1;exitY=0.5;labelBackgroundColor=none;startFill=0;endArrow=block;endFill=1;strokeColor=#0000FF;strokeWidth=1;fontFamily=Verdana;fontSize=12;" parent="1" source="7d933b09d9755ecc-32" target="7d933b09d9755ecc-15" edge="1">
          <mxGeometry relative="1" as="geometry" />
        </mxCell>
        <mxCell id="7d933b09d9755ecc-40" style="edgeStyle=none;rounded=0;html=1;exitX=0;exitY=0.5;labelBackgroundColor=none;startFill=0;endArrow=block;endFill=1;strokeColor=#0000FF;strokeWidth=1;fontFamily=Verdana;fontSize=12;" parent="1" source="7d933b09d9755ecc-36" target="7d933b09d9755ecc-15" edge="1">
          <mxGeometry relative="1" as="geometry" />
        </mxCell>
        <mxCell id="7d933b09d9755ecc-41" value="Trust relationship" style="html=1;exitX=1;exitY=0.5;labelBackgroundColor=none;startFill=0;endArrow=block;endFill=1;strokeColor=#FF0000;strokeWidth=1;fontFamily=Verdana;fontSize=12;entryX=1;entryY=0.5;curved=1;" parent="1" source="7d933b09d9755ecc-14" target="7d933b09d9755ecc-31" edge="1">
          <mxGeometry x="0.0622" relative="1" as="geometry">
            <mxPoint x="660" y="490" as="targetPoint" />
            <Array as="points">
              <mxPoint x="890" y="270" />
            </Array>
            <mxPoint as="offset" />
          </mxGeometry>
        </mxCell>
        <mxCell id="7d933b09d9755ecc-42" value="Trust relationship" style="html=1;exitX=1;exitY=0.5;entryX=1;entryY=0.5;labelBackgroundColor=none;startFill=0;endArrow=block;endFill=1;strokeColor=#FF0000;strokeWidth=1;fontFamily=Verdana;fontSize=12;curved=1;" parent="1" source="7d933b09d9755ecc-14" target="7d933b09d9755ecc-35" edge="1">
          <mxGeometry x="0.3227" y="10" relative="1" as="geometry">
            <Array as="points">
              <mxPoint x="1380" y="290" />
            </Array>
            <mxPoint as="offset" />
          </mxGeometry>
        </mxCell>
        <mxCell id="7d933b09d9755ecc-43" value="Synchronization" style="edgeStyle=none;rounded=0;html=1;entryX=0.653;entryY=0.304;entryPerimeter=0;labelBackgroundColor=none;startFill=0;endArrow=block;endFill=1;strokeWidth=1;fontFamily=Verdana;fontSize=12;" parent="1" source="7d933b09d9755ecc-4" target="7d933b09d9755ecc-35" edge="1">
          <mxGeometry relative="1" as="geometry" />
        </mxCell>
        <mxCell id="7d933b09d9755ecc-44" value="Synchronization" style="edgeStyle=none;rounded=0;html=1;entryX=0.544;entryY=0.766;entryPerimeter=0;labelBackgroundColor=none;startFill=0;endArrow=block;endFill=1;strokeWidth=1;fontFamily=Verdana;fontSize=12;" parent="1" source="7d933b09d9755ecc-4" target="7d933b09d9755ecc-31" edge="1">
          <mxGeometry x="-0.1797" y="19" relative="1" as="geometry">
            <mxPoint as="offset" />
          </mxGeometry>
        </mxCell>
      </root>
    </mxGraphModel>
  </diagram>
</mxfile>
